<?xml version="1.0" encoding="UTF-8" standalone="no"?>
<!DOCTYPE svg PUBLIC "-//W3C//DTD SVG 1.1//EN"
 "http://www.w3.org/Graphics/SVG/1.1/DTD/svg11.dtd">
<!-- Generated by graphviz version 9.0.0 (20230911.1827)
 -->
<!-- Pages: 1 -->
<svg width="519pt" height="164pt"
 viewBox="0.00 0.00 519.21 164.00" xmlns="http://www.w3.org/2000/svg" xmlns:xlink="http://www.w3.org/1999/xlink">
<g id="graph0" class="graph" transform="scale(1 1) rotate(0) translate(4 160)">
<polygon fill="white" stroke="none" points="-4,4 -4,-160 515.21,-160 515.21,4 -4,4"/>
<g id="clust1" class="cluster">
<title>cluster_.my_algorithm</title>
<path fill="none" stroke="black" d="M20,-8C20,-8 491.21,-8 491.21,-8 497.21,-8 503.21,-14 503.21,-20 503.21,-20 503.21,-136 503.21,-136 503.21,-142 497.21,-148 491.21,-148 491.21,-148 20,-148 20,-148 14,-148 8,-142 8,-136 8,-136 8,-20 8,-20 8,-14 14,-8 20,-8"/>
<text text-anchor="middle" x="255.6" y="-130.7" font-family="Helvetica,sans-Serif" font-size="14.00">my_algorithm</text>
</g>
<!-- .my_algorithm.in_0 -->
<g id="node1" class="node">
<title>.my_algorithm.in_0</title>
<ellipse fill="none" stroke="#ffa44a" stroke-width="2" cx="36.56" cy="-37" rx="20.56" ry="20.56"/>
<text text-anchor="middle" x="36.56" y="-33.12" font-family="Times,serif" font-size="10.00">in_0</text>
</g>
<!-- .my_algorithm.subroutine_1 -->
<g id="node4" class="node">
<title>.my_algorithm.subroutine_1</title>
<path fill="none" stroke="#0288f5" stroke-width="2" d="M105.12,-17C105.12,-17 238.62,-17 238.62,-17 244.62,-17 250.62,-23 250.62,-29 250.62,-29 250.62,-41 250.62,-41 250.62,-47 244.62,-53 238.62,-53 238.62,-53 105.12,-53 105.12,-53 99.12,-53 93.12,-47 93.12,-41 93.12,-41 93.12,-29 93.12,-29 93.12,-23 99.12,-17 105.12,-17"/>
<text text-anchor="middle" x="111.62" y="-31.1" font-family="Times,serif" font-size="12.00">in_0</text>
<polyline fill="none" stroke="#0288f5" stroke-width="2" points="130.12,-17.75 130.12,-53"/>
<text text-anchor="middle" x="168.87" y="-31.1" font-family="Times,serif" font-size="12.00">subroutine_1</text>
<polyline fill="none" stroke="#0288f5" stroke-width="2" points="207.62,-17.75 207.62,-53"/>
<text text-anchor="middle" x="229.12" y="-31.1" font-family="Times,serif" font-size="12.00">out_0</text>
</g>
<!-- .my_algorithm.in_0&#45;&gt;.my_algorithm.subroutine_1 -->
<g id="edge1" class="edge">
<title>.my_algorithm.in_0&#45;&gt;.my_algorithm.subroutine_1:in_0</title>
<path fill="none" stroke="black" d="M57.36,-35.94C64.65,-35.61 73.21,-35.29 81.7,-35.12"/>
<polygon fill="black" stroke="black" points="81.65,-38.62 91.61,-35.02 81.57,-31.62 81.65,-38.62"/>
</g>
<!-- .my_algorithm.in_1 -->
<g id="node2" class="node">
<title>.my_algorithm.in_1</title>
<ellipse fill="none" stroke="#ffa44a" stroke-width="2" cx="36.56" cy="-96" rx="20.56" ry="20.56"/>
<text text-anchor="middle" x="36.56" y="-92.12" font-family="Times,serif" font-size="10.00">in_1</text>
</g>
<!-- .my_algorithm.subroutine_2 -->
<g id="node5" class="node">
<title>.my_algorithm.subroutine_2</title>
<path fill="none" stroke="#0288f5" stroke-width="2" d="M105.12,-71.75C105.12,-71.75 238.62,-71.75 238.62,-71.75 244.62,-71.75 250.62,-77.75 250.62,-83.75 250.62,-83.75 250.62,-104.25 250.62,-104.25 250.62,-110.25 244.62,-116.25 238.62,-116.25 238.62,-116.25 105.12,-116.25 105.12,-116.25 99.12,-116.25 93.12,-110.25 93.12,-104.25 93.12,-104.25 93.12,-83.75 93.12,-83.75 93.12,-77.75 99.12,-71.75 105.12,-71.75"/>
<text text-anchor="middle" x="111.62" y="-89.85" font-family="Times,serif" font-size="12.00">in_0</text>
<polyline fill="none" stroke="#0288f5" stroke-width="2" points="130.12,-71.75 130.12,-116.25"/>
<text text-anchor="middle" x="168.87" y="-89.72" font-family="Times,serif" font-size="12.00">subroutine_2</text>
<polyline fill="none" stroke="#0288f5" stroke-width="2" points="207.62,-71.75 207.62,-116.25"/>
<text text-anchor="middle" x="229.12" y="-100.85" font-family="Times,serif" font-size="12.00">out_0</text>
<polyline fill="none" stroke="#0288f5" stroke-width="2" points="207.62,-94 250.62,-94"/>
<text text-anchor="middle" x="229.12" y="-78.6" font-family="Times,serif" font-size="12.00">out_1</text>
</g>
<!-- .my_algorithm.in_1&#45;&gt;.my_algorithm.subroutine_2 -->
<g id="edge2" class="edge">
<title>.my_algorithm.in_1&#45;&gt;.my_algorithm.subroutine_2:in_0</title>
<path fill="none" stroke="black" d="M57.36,-94.94C64.65,-94.61 73.21,-94.29 81.7,-94.12"/>
<polygon fill="black" stroke="black" points="81.65,-97.62 91.61,-94.02 81.57,-90.62 81.65,-97.62"/>
</g>
<!-- .my_algorithm.out_0 -->
<g id="node3" class="node">
<title>.my_algorithm.out_0</title>
<ellipse fill="none" stroke="#ffa44a" stroke-width="2" cx="471.54" cy="-83" rx="23.67" ry="23.67"/>
<text text-anchor="middle" x="471.54" y="-79.12" font-family="Times,serif" font-size="10.00">out_0</text>
</g>
<!-- .my_algorithm.merge -->
<g id="node6" class="node">
<title>.my_algorithm.merge</title>
<path fill="none" stroke="#0288f5" stroke-width="2" d="M298.62,-49.62C298.62,-49.62 399.87,-49.62 399.87,-49.62 405.87,-49.62 411.87,-55.62 411.87,-61.62 411.87,-61.62 411.87,-104.38 411.87,-104.38 411.87,-110.38 405.87,-116.38 399.87,-116.38 399.87,-116.38 298.62,-116.38 298.62,-116.38 292.62,-116.38 286.62,-110.38 286.62,-104.38 286.62,-104.38 286.62,-61.62 286.62,-61.62 286.62,-55.62 292.62,-49.62 298.62,-49.62"/>
<text text-anchor="middle" x="305.12" y="-100.97" font-family="Times,serif" font-size="12.00">in_0</text>
<polyline fill="none" stroke="#0288f5" stroke-width="2" points="286.62,-94.12 323.62,-94.12"/>
<text text-anchor="middle" x="305.12" y="-78.72" font-family="Times,serif" font-size="12.00">in_1</text>
<polyline fill="none" stroke="#0288f5" stroke-width="2" points="286.62,-71.88 323.62,-71.88"/>
<text text-anchor="middle" x="305.12" y="-56.48" font-family="Times,serif" font-size="12.00">in_2</text>
<polyline fill="none" stroke="#0288f5" stroke-width="2" points="323.62,-49.62 323.62,-116.38"/>
<text text-anchor="middle" x="346.25" y="-78.72" font-family="Times,serif" font-size="12.00">merge</text>
<polyline fill="none" stroke="#0288f5" stroke-width="2" points="368.87,-49.62 368.87,-116.38"/>
<text text-anchor="middle" x="390.37" y="-78.97" font-family="Times,serif" font-size="12.00">out_0</text>
</g>
<!-- .my_algorithm.subroutine_1&#45;&gt;.my_algorithm.merge -->
<g id="edge3" class="edge">
<title>.my_algorithm.subroutine_1:out_0&#45;&gt;.my_algorithm.merge:in_2</title>
<path fill="none" stroke="black" d="M250.62,-35C265.73,-35 267.24,-50.24 275.97,-57.38"/>
<polygon fill="black" stroke="black" points="274.6,-60.61 285.19,-60.51 276.85,-53.98 274.6,-60.61"/>
</g>
<!-- .my_algorithm.subroutine_2&#45;&gt;.my_algorithm.merge -->
<g id="edge4" class="edge">
<title>.my_algorithm.subroutine_2:out_0&#45;&gt;.my_algorithm.merge:in_0</title>
<path fill="none" stroke="black" d="M250.62,-105C262,-105 267.31,-105 275.18,-105"/>
<polygon fill="black" stroke="black" points="275.11,-108.5 285.11,-105 275.11,-101.5 275.11,-108.5"/>
</g>
<!-- .my_algorithm.subroutine_2&#45;&gt;.my_algorithm.merge -->
<g id="edge5" class="edge">
<title>.my_algorithm.subroutine_2:out_1&#45;&gt;.my_algorithm.merge:in_1</title>
<path fill="none" stroke="black" d="M250.62,-83C262,-83 267.31,-83 275.18,-83"/>
<polygon fill="black" stroke="black" points="275.11,-86.5 285.11,-83 275.11,-79.5 275.11,-86.5"/>
</g>
<!-- .my_algorithm.merge&#45;&gt;.my_algorithm.out_0 -->
<g id="edge6" class="edge">
<title>.my_algorithm.merge:out_0&#45;&gt;.my_algorithm.out_0</title>
<path fill="none" stroke="black" d="M411.87,-83C419.65,-83 428.01,-83 435.91,-83"/>
<polygon fill="black" stroke="black" points="435.9,-86.5 445.9,-83 435.9,-79.5 435.9,-86.5"/>
</g>
</g>
</svg>
