<?xml version="1.0" encoding="UTF-8" standalone="no"?>
<!DOCTYPE svg PUBLIC "-//W3C//DTD SVG 1.1//EN"
 "http://www.w3.org/Graphics/SVG/1.1/DTD/svg11.dtd">
<!-- Generated by graphviz version 8.1.0 (20230707.0739)
 -->
<!-- Pages: 1 -->
<svg width="472pt" height="164pt"
 viewBox="0.00 0.00 471.87 164.00" xmlns="http://www.w3.org/2000/svg" xmlns:xlink="http://www.w3.org/1999/xlink">
<g id="graph0" class="graph" transform="scale(1 1) rotate(0) translate(4 160)">
<polygon fill="white" stroke="none" points="-4,4 -4,-160 467.87,-160 467.87,4 -4,4"/>
<g id="clust1" class="cluster">
<title>cluster_.my_program</title>
<path fill="none" stroke="black" d="M20,-8C20,-8 443.87,-8 443.87,-8 449.87,-8 455.87,-14 455.87,-20 455.87,-20 455.87,-136 455.87,-136 455.87,-142 449.87,-148 443.87,-148 443.87,-148 20,-148 20,-148 14,-148 8,-142 8,-136 8,-136 8,-20 8,-20 8,-14 14,-8 20,-8"/>
<text text-anchor="middle" x="231.94" y="-130.7" font-family="Helvetica,sans-Serif" font-size="14.00">my_program</text>
</g>
<!-- .my_program.in_0 -->
<g id="node1" class="node">
<title>.my_program.in_0</title>
<ellipse fill="none" stroke="#ffa44a" stroke-width="2" cx="36.56" cy="-37" rx="20.56" ry="20.56"/>
<text text-anchor="middle" x="36.56" y="-33.12" font-family="Times,serif" font-size="10.00">in_0</text>
</g>
<!-- .my_program.subroutine_1 -->
<g id="node4" class="node">
<title>.my_program.subroutine_1</title>
<path fill="none" stroke="#0288f5" stroke-width="2" d="M105.12,-20C105.12,-20 214.62,-20 214.62,-20 220.62,-20 226.62,-26 226.62,-32 226.62,-32 226.62,-44 226.62,-44 226.62,-50 220.62,-56 214.62,-56 214.62,-56 105.12,-56 105.12,-56 99.12,-56 93.12,-50 93.12,-44 93.12,-44 93.12,-32 93.12,-32 93.12,-26 99.12,-20 105.12,-20"/>
<text text-anchor="middle" x="105.62" y="-34.1" font-family="Times,serif" font-size="12.00">in</text>
<polyline fill="none" stroke="#0288f5" stroke-width="2" points="118.12,-20.75 118.12,-56"/>
<text text-anchor="middle" x="156.87" y="-34.1" font-family="Times,serif" font-size="12.00">subroutine_1</text>
<polyline fill="none" stroke="#0288f5" stroke-width="2" points="195.62,-20.75 195.62,-56"/>
<text text-anchor="middle" x="211.12" y="-34.1" font-family="Times,serif" font-size="12.00">out</text>
</g>
<!-- .my_program.in_0&#45;&gt;.my_program.subroutine_1 -->
<g id="edge1" class="edge">
<title>.my_program.in_0&#45;&gt;.my_program.subroutine_1:in</title>
<path fill="none" stroke="black" d="M57.36,-37.53C64.82,-37.7 73.6,-37.86 82.29,-37.94"/>
<polygon fill="black" stroke="black" points="82.11,-41.45 92.12,-38 82.14,-34.45 82.11,-41.45"/>
</g>
<!-- .my_program.in_1 -->
<g id="node2" class="node">
<title>.my_program.in_1</title>
<ellipse fill="none" stroke="#ffa44a" stroke-width="2" cx="36.56" cy="-96" rx="20.56" ry="20.56"/>
<text text-anchor="middle" x="36.56" y="-92.12" font-family="Times,serif" font-size="10.00">in_1</text>
</g>
<!-- .my_program.subroutine_2 -->
<g id="node5" class="node">
<title>.my_program.subroutine_2</title>
<path fill="none" stroke="#0288f5" stroke-width="2" d="M105.12,-77C105.12,-77 214.62,-77 214.62,-77 220.62,-77 226.62,-83 226.62,-89 226.62,-89 226.62,-101 226.62,-101 226.62,-107 220.62,-113 214.62,-113 214.62,-113 105.12,-113 105.12,-113 99.12,-113 93.12,-107 93.12,-101 93.12,-101 93.12,-89 93.12,-89 93.12,-83 99.12,-77 105.12,-77"/>
<text text-anchor="middle" x="105.62" y="-91.1" font-family="Times,serif" font-size="12.00">in</text>
<polyline fill="none" stroke="#0288f5" stroke-width="2" points="118.12,-77.75 118.12,-113"/>
<text text-anchor="middle" x="156.87" y="-91.1" font-family="Times,serif" font-size="12.00">subroutine_2</text>
<polyline fill="none" stroke="#0288f5" stroke-width="2" points="195.62,-77.75 195.62,-113"/>
<text text-anchor="middle" x="211.12" y="-91.1" font-family="Times,serif" font-size="12.00">out</text>
</g>
<!-- .my_program.in_1&#45;&gt;.my_program.subroutine_2 -->
<g id="edge2" class="edge">
<title>.my_program.in_1&#45;&gt;.my_program.subroutine_2:in</title>
<path fill="none" stroke="black" d="M57.36,-95.47C64.82,-95.3 73.6,-95.14 82.29,-95.06"/>
<polygon fill="black" stroke="black" points="82.14,-98.55 92.12,-95 82.11,-91.55 82.14,-98.55"/>
</g>
<!-- .my_program.out -->
<g id="node3" class="node">
<title>.my_program.out</title>
<ellipse fill="none" stroke="#ffa44a" stroke-width="2" cx="429.87" cy="-66" rx="18" ry="18"/>
<text text-anchor="middle" x="429.87" y="-62.12" font-family="Times,serif" font-size="10.00">out</text>
</g>
<!-- .my_program.merge -->
<g id="node6" class="node">
<title>.my_program.merge</title>
<path fill="none" stroke="#0288f5" stroke-width="2" d="M274.62,-43.75C274.62,-43.75 363.87,-43.75 363.87,-43.75 369.87,-43.75 375.87,-49.75 375.87,-55.75 375.87,-55.75 375.87,-76.25 375.87,-76.25 375.87,-82.25 369.87,-88.25 363.87,-88.25 363.87,-88.25 274.62,-88.25 274.62,-88.25 268.62,-88.25 262.62,-82.25 262.62,-76.25 262.62,-76.25 262.62,-55.75 262.62,-55.75 262.62,-49.75 268.62,-43.75 274.62,-43.75"/>
<text text-anchor="middle" x="281.12" y="-72.85" font-family="Times,serif" font-size="12.00">in_0</text>
<polyline fill="none" stroke="#0288f5" stroke-width="2" points="262.62,-66 299.62,-66"/>
<text text-anchor="middle" x="281.12" y="-50.6" font-family="Times,serif" font-size="12.00">in_1</text>
<polyline fill="none" stroke="#0288f5" stroke-width="2" points="299.62,-43.75 299.62,-88.25"/>
<text text-anchor="middle" x="322.25" y="-61.73" font-family="Times,serif" font-size="12.00">merge</text>
<polyline fill="none" stroke="#0288f5" stroke-width="2" points="344.87,-43.75 344.87,-88.25"/>
<text text-anchor="middle" x="360.37" y="-61.85" font-family="Times,serif" font-size="12.00">out</text>
</g>
<!-- .my_program.subroutine_1&#45;&gt;.my_program.merge -->
<g id="edge3" class="edge">
<title>.my_program.subroutine_1:out&#45;&gt;.my_program.merge:in_1</title>
<path fill="none" stroke="black" d="M226.62,-38C239.89,-38 243.56,-47.56 252.02,-52.34"/>
<polygon fill="black" stroke="black" points="251.07,-55.96 261.62,-55 252.77,-49.17 251.07,-55.96"/>
</g>
<!-- .my_program.subroutine_2&#45;&gt;.my_program.merge -->
<g id="edge4" class="edge">
<title>.my_program.subroutine_2:out&#45;&gt;.my_program.merge:in_0</title>
<path fill="none" stroke="black" d="M226.62,-95C240.18,-95 243.59,-84.66 252.23,-79.66"/>
<polygon fill="black" stroke="black" points="252.8,-82.87 261.62,-77 251.07,-76.09 252.8,-82.87"/>
</g>
<!-- .my_program.merge&#45;&gt;.my_program.out -->
<g id="edge5" class="edge">
<title>.my_program.merge:out&#45;&gt;.my_program.out</title>
<path fill="none" stroke="black" d="M375.87,-66C384,-66 392.84,-66 400.92,-66"/>
<polygon fill="black" stroke="black" points="400.69,-69.5 410.69,-66 400.69,-62.5 400.69,-69.5"/>
</g>
</g>
</svg>
